<svg xmlns="http://www.w3.org/2000/svg" xmlns:xlink="http://www.w3.org/1999/xlink" width="292" height="133.258" viewBox="0 0 292 133.258"><defs><style>.a,.b{fill:#fff;}.b{fill-rule:evenodd;}.c{fill:url(#a);}.d{fill:#6b6765;}.e{clip-path:url(#b);}.f{fill:url(#c);}</style><radialGradient id="a" cx="0.431" cy="0.337" r="0.66" gradientTransform="translate(0)" gradientUnits="objectBoundingBox"><stop offset="0" stop-color="#fff"/><stop offset="1" stop-color="#797674"/></radialGradient><clipPath id="b"><path class="a" d="M171.535,44.662a102.536,102.536,0,0,1-41.158.19c5.332-13.3,12.66-25.893,20.749-37.69C159.2,18.823,166.508,31.365,171.535,44.662Z" transform="translate(-130.377 -7.162)"/></clipPath><radialGradient id="c" cx="0.431" cy="0.337" r="0.66" gradientTransform="translate(0)" gradientUnits="objectBoundingBox"><stop offset="0" stop-color="#fff"/><stop offset="0.57" stop-color="#0095a7"/></radialGradient></defs><g transform="translate(0 116.935)"><path class="a" d="M156.867,75.521h-1.574l-.331,1.661h1.589Zm-4.6-4.219a8.4,8.4,0,0,1-.192,1.558c-.333,1.786-.944,3.342-2.691,3.342-1.207,0-1.56-.839-1.56-1.784a8.467,8.467,0,0,1,.193-1.558c.331-1.78.963-3.322,2.71-3.322C151.934,69.538,152.267,70.359,152.267,71.3Zm1.24-.155c0-1.47-.611-2.693-2.464-2.693a2.839,2.839,0,0,0-2.4,1.117l.21-1.012H147.65l-2.484,12.456h1.224l1-4.917a2.206,2.206,0,0,0,2.133,1.188,3.054,3.054,0,0,0,2.308-.906,6.713,6.713,0,0,0,1.482-3.519A8.445,8.445,0,0,0,153.507,71.147Zm-7.556-1.893a2.333,2.333,0,0,0-1.871-.8,2.924,2.924,0,0,0-2.415,1.151l.21-1.047h-1.209l-1.71,8.624h1.226l1.05-5.284a2.716,2.716,0,0,1,2.5-2.361,1.484,1.484,0,0,1,1.224.609Zm-9.763,2.156a4.629,4.629,0,0,1-.067.875H131.78c.49-1.925,1.489-2.8,2.749-2.8.889,0,1.659.58,1.659,1.927m1.188,0a2.7,2.7,0,0,0-2.8-2.957c-3.064,0-4.251,3.292-4.251,5.862a2.726,2.726,0,0,0,2.941,2.97,4.5,4.5,0,0,0,3.254-1.254l-.736-.808a3.333,3.333,0,0,1-2.433,1.016,1.748,1.748,0,0,1-1.855-1.979,6.866,6.866,0,0,1,.108-1.085h5.56a10.928,10.928,0,0,0,.208-1.764m-12.1-2.852h-1.7l.524-2.623h-1.224l-.528,2.623h-1.083l-.174.925h1.068l-1.068,5.356a4,4,0,0,0-.069.7,1.607,1.607,0,0,0,1.78,1.645h.877l.224-1.048h-.7c-.736,0-.962-.282-.962-.738a2.238,2.238,0,0,1,.07-.557l1.085-5.356h1.679Zm-5.79,1.168A2.8,2.8,0,0,0,117,68.454c-2.225,0-3.868,1.536-4.392,4.407a7.733,7.733,0,0,0-.123,1.33,2.844,2.844,0,0,0,3.024,3.095,3.971,3.971,0,0,0,2.87-1.2l-.718-.875a2.662,2.662,0,0,1-2.081,1,1.818,1.818,0,0,1-1.871-2.048,6.456,6.456,0,0,1,.137-1.294,4.955,4.955,0,0,1,1.121-2.482,2.6,2.6,0,0,1,1.905-.841,1.827,1.827,0,0,1,1.7.962ZM109.5,71.411a4.323,4.323,0,0,1-.072.875h-4.338c.49-1.925,1.488-2.8,2.746-2.8.893,0,1.665.58,1.665,1.927m1.188,0a2.7,2.7,0,0,0-2.8-2.957c-3.062,0-4.25,3.292-4.25,5.862a2.722,2.722,0,0,0,2.937,2.97,4.5,4.5,0,0,0,3.254-1.254l-.734-.808a3.345,3.345,0,0,1-2.433,1.016,1.748,1.748,0,0,1-1.856-1.979,7.33,7.33,0,0,1,.1-1.085h5.564a10.989,10.989,0,0,0,.211-1.764m-6.7-6.719h-.925a2.406,2.406,0,0,0-2.5,2.2l-.333,1.663H99.189l-.175.925h1.034l-1.542,7.7h1.227l1.538-7.7h1.784l.192-.925h-1.784l.318-1.591a1.309,1.309,0,0,1,1.363-1.227h.629ZM98.1,69.254a2.331,2.331,0,0,0-1.871-.8A2.924,2.924,0,0,0,93.819,69.6l.21-1.047H92.821l-1.714,8.624h1.226l1.05-5.284a2.723,2.723,0,0,1,2.5-2.361,1.477,1.477,0,0,1,1.226.609Zm-9.759,2.156a4.611,4.611,0,0,1-.07.875h-4.34c.492-1.925,1.489-2.8,2.748-2.8.893,0,1.663.58,1.663,1.927m1.188,0a2.7,2.7,0,0,0-2.8-2.957c-3.064,0-4.251,3.292-4.251,5.862a2.725,2.725,0,0,0,2.941,2.97,4.5,4.5,0,0,0,3.252-1.254l-.736-.808a3.329,3.329,0,0,1-2.431,1.016,1.749,1.749,0,0,1-1.856-1.979,7.325,7.325,0,0,1,.107-1.085h5.565a11.354,11.354,0,0,0,.208-1.764M79.512,71.3a8.726,8.726,0,0,1-.193,1.558c-.331,1.786-.945,3.342-2.7,3.342-1.2,0-1.554-.839-1.554-1.784a8.453,8.453,0,0,1,.192-1.558c.329-1.78.96-3.322,2.711-3.322C79.178,69.538,79.512,70.359,79.512,71.3Zm1.238-.155c0-1.47-.611-2.693-2.464-2.693a2.84,2.84,0,0,0-2.4,1.117l.212-1.012H74.894L72.412,81.014h1.22l1-4.917a2.21,2.21,0,0,0,2.133,1.188,3.054,3.054,0,0,0,2.308-.906,6.744,6.744,0,0,0,1.486-3.519A8.427,8.427,0,0,0,80.75,71.147Z" transform="translate(58.478 -64.692)"/><path class="a" d="M124.885,75.521h-1.573l-.334,1.661h1.592Zm-3.132-6.11a3.809,3.809,0,0,0-2.728-.958,3.716,3.716,0,0,0-2.731.958,2.866,2.866,0,0,0-.8,1.961c0,.718.349,1.612,2.151,1.873l1.171.175c.736.107,1.209.318,1.209,1.085,0,.788-.79,1.733-2.489,1.733a2.83,2.83,0,0,1-2.377-.98l-.909.788a4.027,4.027,0,0,0,3.185,1.238,4.363,4.363,0,0,0,2.957-.938,2.541,2.541,0,0,0,.855-1.876c0-1.276-.577-1.891-2.1-2.117l-1.153-.157c-.842-.125-1.282-.4-1.282-.98a1.9,1.9,0,0,1,2.155-1.75,2.733,2.733,0,0,1,2.01.7Zm-8.047,0a3.8,3.8,0,0,0-2.729-.958,3.706,3.706,0,0,0-2.728.958,2.868,2.868,0,0,0-.8,1.961c0,.718.347,1.612,2.147,1.873l1.175.175c.732.107,1.207.318,1.207,1.085,0,.788-.786,1.733-2.484,1.733a2.821,2.821,0,0,1-2.377-.98l-.911.788a4.015,4.015,0,0,0,3.18,1.238,4.359,4.359,0,0,0,2.959-.938,2.544,2.544,0,0,0,.857-1.876c0-1.276-.575-1.891-2.1-2.117l-1.155-.157c-.841-.125-1.276-.4-1.276-.98a1.9,1.9,0,0,1,2.151-1.75,2.734,2.734,0,0,1,2.014.7Zm-9.707,2a4.476,4.476,0,0,1-.069.875H99.588c.492-1.925,1.488-2.8,2.749-2.8.891,0,1.661.58,1.661,1.927m1.188,0a2.7,2.7,0,0,0-2.8-2.957c-3.062,0-4.25,3.292-4.25,5.862a2.724,2.724,0,0,0,2.937,2.97,4.5,4.5,0,0,0,3.255-1.254l-.736-.808a3.332,3.332,0,0,1-2.431,1.016,1.747,1.747,0,0,1-1.856-1.979,6.873,6.873,0,0,1,.1-1.085h5.564a10.96,10.96,0,0,0,.21-1.764M96.2,70.885a2.283,2.283,0,0,0-2.379-2.431,3.179,3.179,0,0,0-2.54,1.066l.174-.962H90.266l-1.714,8.624h1.224l1.05-5.284a2.616,2.616,0,0,1,2.534-2.379,1.424,1.424,0,0,1,1.574,1.54,4.69,4.69,0,0,1-.085.8l-1.066,5.32h1.222l1.083-5.441a5.191,5.191,0,0,0,.108-.857m-8.1-6.054h-1.4l-.244,1.278h1.385Zm-.8,3.727H86.067l-1.715,8.624h1.226Zm-4.217.853a3.808,3.808,0,0,0-2.726-.958,3.707,3.707,0,0,0-2.731.958,2.86,2.86,0,0,0-.8,1.961c0,.718.349,1.612,2.151,1.873l1.17.175c.737.107,1.209.318,1.209,1.085,0,.788-.786,1.733-2.485,1.733a2.834,2.834,0,0,1-2.379-.98l-.907.788a4.021,4.021,0,0,0,3.181,1.238,4.354,4.354,0,0,0,2.957-.938,2.535,2.535,0,0,0,.855-1.876c0-1.276-.575-1.891-2.1-2.117L79.314,72.2c-.841-.125-1.278-.4-1.278-.98,0-.839.7-1.75,2.155-1.75a2.739,2.739,0,0,1,2.01.7Zm-8.241-.853H73.61l-1.05,5.285a2.624,2.624,0,0,1-2.552,2.377,1.435,1.435,0,0,1-1.576-1.54,3.718,3.718,0,0,1,.108-.806l1.066-5.316H68.38L67.3,74a4.67,4.67,0,0,0-.1.853,2.3,2.3,0,0,0,2.413,2.431,3.126,3.126,0,0,0,2.5-1.065l-.177.962H73.12Zm-10.807,2.78a8.4,8.4,0,0,1-.192,1.522c-.334,1.786-.947,3.342-2.7,3.342-1.2,0-1.553-.822-1.553-1.8a8.788,8.788,0,0,1,.192-1.542c.333-1.78.962-3.322,2.711-3.322,1.207,0,1.54.821,1.54,1.8m1.238-.157c0-1.786-.871-2.728-2.462-2.728a2.77,2.77,0,0,0-2.361,1.085l.96-4.814H60.178L57.694,77.182H58.9l.226-1.1a2.225,2.225,0,0,0,2.171,1.2,3.152,3.152,0,0,0,2.29-.887,6.652,6.652,0,0,0,1.488-3.537A9.72,9.72,0,0,0,65.264,71.181Zm-12.4-2.623h-1.7l.524-2.623H50.465l-.524,2.623H48.859l-.175.925H49.75L48.683,74.84a4.183,4.183,0,0,0-.069.7,1.607,1.607,0,0,0,1.78,1.645h.875l.224-1.048H50.8c-.739,0-.965-.282-.965-.738a2.25,2.25,0,0,1,.072-.557l1.085-5.356h1.677Zm-5.788,1.168a2.8,2.8,0,0,0-2.484-1.273c-2.223,0-3.868,1.536-4.394,4.407a7.886,7.886,0,0,0-.119,1.33A2.842,2.842,0,0,0,43.1,77.285a3.959,3.959,0,0,0,2.869-1.2l-.716-.875a2.662,2.662,0,0,1-2.081,1A1.821,1.821,0,0,1,41.3,74.155a6.461,6.461,0,0,1,.141-1.294,4.949,4.949,0,0,1,1.117-2.482,2.6,2.6,0,0,1,1.909-.841,1.826,1.826,0,0,1,1.7.962Zm-9.989,1.685a4.2,4.2,0,0,1-.072.875h-4.34c.492-1.925,1.489-2.8,2.749-2.8.891,0,1.663.58,1.663,1.927m1.186,0a2.7,2.7,0,0,0-2.8-2.957c-3.064,0-4.25,3.292-4.25,5.862a2.722,2.722,0,0,0,2.937,2.97,4.511,4.511,0,0,0,3.257-1.254l-.739-.808a3.339,3.339,0,0,1-2.433,1.016A1.746,1.746,0,0,1,32.4,74.259a7.1,7.1,0,0,1,.1-1.085h5.564a11.354,11.354,0,0,0,.208-1.764m-6.7-6.719h-.927a2.408,2.408,0,0,0-2.5,2.2l-.333,1.663H26.779l-.175.925h1.034l-1.542,7.7H27.32l1.542-7.7h1.784l.193-.925H29.053l.316-1.591a1.311,1.311,0,0,1,1.365-1.227h.629Zm-5.88,4.562a2.325,2.325,0,0,0-1.869-.8A2.924,2.924,0,0,0,21.409,69.6l.208-1.047h-1.2L18.7,77.182h1.226L20.973,71.9a2.721,2.721,0,0,1,2.5-2.361,1.483,1.483,0,0,1,1.227.609Zm-9.759,2.156a4.619,4.619,0,0,1-.069.875h-4.34c.49-1.925,1.488-2.8,2.749-2.8.891,0,1.659.58,1.659,1.927m1.191,0a2.7,2.7,0,0,0-2.8-2.957c-3.062,0-4.25,3.292-4.25,5.862a2.725,2.725,0,0,0,2.939,2.97,4.5,4.5,0,0,0,3.254-1.254l-.736-.808A3.329,3.329,0,0,1,13.1,76.239a1.749,1.749,0,0,1-1.856-1.979,7.326,7.326,0,0,1,.107-1.085h5.566a11.388,11.388,0,0,0,.21-1.764M7.1,71.3a8.873,8.873,0,0,1-.19,1.558c-.333,1.786-.949,3.342-2.7,3.342-1.2,0-1.553-.839-1.553-1.784a8.611,8.611,0,0,1,.192-1.558c.331-1.78.962-3.322,2.711-3.322C6.769,69.538,7.1,70.359,7.1,71.3Zm1.24-.155c0-1.47-.611-2.693-2.462-2.693a2.836,2.836,0,0,0-2.4,1.117l.21-1.012H2.484L0,81.014H1.222l1-4.917a2.214,2.214,0,0,0,2.135,1.188,3.058,3.058,0,0,0,2.31-.906A6.758,6.758,0,0,0,8.149,72.86,8.558,8.558,0,0,0,8.34,71.147Z" transform="translate(0 -64.692)"/></g><g transform="translate(0.132 60.919)"><path class="b" d="M66.219,63.541A13.426,13.426,0,0,1,52.769,76.99H.073V66.406h52.7a2.7,2.7,0,0,0,1.985-.808,2.825,2.825,0,0,0,.882-2.057,3.021,3.021,0,0,0-2.867-2.867H13.523A13.423,13.423,0,0,1,.073,47.152a13.061,13.061,0,0,1,3.9-9.483A13.028,13.028,0,0,1,13.523,33.7h49.46V44.359H13.523a2.956,2.956,0,0,0-2.057.806,2.7,2.7,0,0,0-.81,1.987,2.783,2.783,0,0,0,.81,2.057,2.95,2.95,0,0,0,2.057.808H52.769a12.784,12.784,0,0,1,9.481,3.969A13.025,13.025,0,0,1,66.219,63.541Z" transform="translate(-0.073 -33.702)"/><path class="b" d="M107.692,50.46v9.774A16.685,16.685,0,0,1,90.936,76.99H58.3A16.565,16.565,0,0,1,41.546,60.233V50.46A16.691,16.691,0,0,1,58.3,33.7H90.936a15.979,15.979,0,0,1,11.832,4.926A16.128,16.128,0,0,1,107.692,50.46Zm-10.657,0a6.022,6.022,0,0,0-6.1-6.1H58.3a6.019,6.019,0,0,0-6.1,6.1l-.074,9.774A6.029,6.029,0,0,0,58.3,66.406H90.936a5.888,5.888,0,0,0,4.335-1.764,6.133,6.133,0,0,0,1.764-4.409Z" transform="translate(33.419 -33.702)"/><path class="b" d="M149.167,60.233A16.688,16.688,0,0,1,132.409,76.99H99.775A16.565,16.565,0,0,1,83.019,60.233V33.7H93.6V60.233a6.032,6.032,0,0,0,6.173,6.173h32.634a5.888,5.888,0,0,0,4.335-1.764,6.007,6.007,0,0,0,1.838-4.409V33.7h10.585Z" transform="translate(66.912 -33.702)"/></g><g transform="translate(220.268)"><path class="c" d="M121.859,35.868a35.866,35.866,0,1,1,35.868,35.866A35.868,35.868,0,0,1,121.859,35.868Z" transform="translate(-121.859)"/><path class="a" d="M173.594,45.925c-13.407,2.876-30.832,2.894-44.2-.188l1.777-.886c5.332-13.3,12.66-25.893,20.749-37.69.5.5,1.265,1.265,1.265,1.265C161.26,20.088,168.568,32.631,173.594,45.925Z" transform="translate(-115.774 5.784)"/><path class="d" d="M129.4,46.3c1.876-8.474,13.17-28.044,21.259-39.841.546.573,1.265,1.265,1.265,1.265,8.074,11.661,15.382,24.2,20.409,37.5a102.536,102.536,0,0,1-41.158.19S129.885,46.057,129.4,46.3Z" transform="translate(-115.773 5.219)"/><g transform="translate(15.397 12.946)"><path class="a" d="M171.535,44.662a102.536,102.536,0,0,1-41.158.19c5.332-13.3,12.66-25.893,20.749-37.69C159.2,18.823,166.508,31.365,171.535,44.662Z" transform="translate(-130.377 -7.162)"/><g class="e"><path class="f" d="M121.859,35.868a35.866,35.866,0,1,1,35.868,35.866A35.868,35.868,0,0,1,121.859,35.868Z" transform="translate(-137.256 -12.946)"/></g></g></g></svg>