<svg xmlns="http://www.w3.org/2000/svg" width="748.552" height="421.314" viewBox="0 0 748.552 421.314"><defs><style>.a{fill:#0096a7;}.b{opacity:0.1;}.b,.c,.e,.g{isolation:isolate;}.c{opacity:0.2;}.d{fill:#00d8de;}.e{opacity:0.28;}.f{fill:#fff;}.g{opacity:0.41;}</style></defs><g transform="translate(857.851 -153.29)"><path class="a" d="M-697.653,160.636a25.379,25.379,0,0,0-7.273,17.965V550.192a24.029,24.029,0,0,0,7.291,17.2,24.879,24.879,0,0,0,17.572,7.217h545.9c13.709,0,24.862-12.019,24.862-26.794V180.049a27.282,27.282,0,0,0-7.241-18.8,25.4,25.4,0,0,0-18.752-7.957H-680.063A24.522,24.522,0,0,0-697.653,160.636Zm562.362-5.456c14.187,0,24.1,11.355,24.1,24.867V547.808c0,13.737-10.285,24.9-22.97,24.9h-545.9c-12.687,0-22.971-10.284-22.971-22.52V178.6a23.072,23.072,0,0,1,22.72-23.419l.251,0Z"/><path class="a" d="M-700.2,178.586V550.175A19.34,19.34,0,0,0-694.315,564a20.181,20.181,0,0,0,14.251,5.854h545.9c11.1,0,20.134-9.9,20.134-22.065V180.032a22.567,22.567,0,0,0-5.959-15.559,20.716,20.716,0,0,0-15.3-6.471H-680.066a19.83,19.83,0,0,0-14.224,5.94A20.68,20.68,0,0,0-700.2,178.586Zm564.906-18.693a18.841,18.841,0,0,1,13.921,5.875,20.689,20.689,0,0,1,5.447,14.264V547.793c0,11.124-8.184,20.173-18.242,20.173h-545.9a18.3,18.3,0,0,1-12.922-5.309,17.458,17.458,0,0,1-5.321-12.483V178.586a18.794,18.794,0,0,1,5.365-13.316,17.957,17.957,0,0,1,12.877-5.377Z"/><path class="a" d="M-651.718,182.259V545.412a2.364,2.364,0,0,0,2.364,2.364h484.2a2.365,2.365,0,0,0,2.364-2.364h0V182.259a2.364,2.364,0,0,0-2.364-2.364h-484.2a2.364,2.364,0,0,0-2.364,2.364Zm486.567,0V545.412h-484.2V182.259Z"/><path class="a" d="M-672.377,364.088a3.547,3.547,0,0,0-3.547-3.547,3.545,3.545,0,0,0-3.546,3.546h0a3.546,3.546,0,0,0,3.546,3.546h0a3.547,3.547,0,0,0,3.547-3.545Zm-5.674,0a2.13,2.13,0,0,1,2.128-2.128,2.13,2.13,0,0,1,2.128,2.128,2.132,2.132,0,0,1-2.128,2.128,2.13,2.13,0,0,1-2.129-2.128Z"/><path class="a" d="M-673.926,374.254a1.9,1.9,0,0,0-1.9-1.9h-.009a1.9,1.9,0,0,0-1.909,1.891v.009a1.9,1.9,0,0,0,1.9,1.9h.009a1.9,1.9,0,0,0,1.909-1.891Z"/><path class="a" d="M-150.878,364.112A14.185,14.185,0,0,0-136.694,378.3h0c.113,0,.227-.006.34-.009a14.183,14.183,0,0,0,13.846-14.177,14.186,14.186,0,0,0-14.186-14.186h0a14.184,14.184,0,0,0-14.185,14.184Zm26.48,0a12.222,12.222,0,0,1-3.5,8.593,12.237,12.237,0,0,1-8.5,3.693h-.293A12.308,12.308,0,0,1-148.985,364.1a12.307,12.307,0,0,1,12.294-12.294A12.308,12.308,0,0,1-124.4,364.112Z"/><path class="a" d="M-142.234,361.381v5.6a2.4,2.4,0,0,0,2.4,2.4h5.6a2.4,2.4,0,0,0,2.4-2.4v-5.6a2.4,2.4,0,0,0-2.4-2.4h-5.6A2.4,2.4,0,0,0-142.234,361.381Zm8-.509a.508.508,0,0,1,.509.509h0v5.6a.509.509,0,0,1-.509.509h-5.6a.51.51,0,0,1-.509-.509v-5.6a.509.509,0,0,1,.509-.509Z"/><g class="b"><rect class="a" width="484.203" height="363.153" transform="translate(-649.354 182.259)"/></g><g class="c"><rect class="d" width="193" height="317" rx="10" transform="translate(-623.834 204.602)"/></g><path class="a" d="M-792.719,320.642-820.839,215.3l-17.706,68.907h-19.306v-1h18.531l18.462-71.853,28.039,105.039L-785.6,283.2h34.875l15.5-39.516,13.953,38.759h25.7l7.865,17.881,4.281-17.124h49.2l16.751-59.048,15.043,59.048H-578.3l13.136,26.272,5.832-25.516h33.1v1h-32.3l-6.275,27.458L-578.915,284.2h-24.3L-617.528,228l-15.944,56.2h-49.177l-4.8,19.2-8.779-19.958h-25.754l-13.29-36.918L-750.047,284.2H-784.8Z"/><path class="a" d="M-250.5,501.768a53.894,53.894,0,0,1-53.833-53.833A53.893,53.893,0,0,1-250.5,394.1a53.894,53.894,0,0,1,53.833,53.833A53.9,53.9,0,0,1-250.5,501.768Zm0-106.666a52.892,52.892,0,0,0-52.833,52.833A52.892,52.892,0,0,0-250.5,500.768a52.893,52.893,0,0,0,52.833-52.833A52.892,52.892,0,0,0-250.5,395.1Z"/><path class="a" d="M-249.035,448.7V394.6h1v52.563l45.471-20.271.407.914Z"/><g class="e"><rect class="f" width="118" height="18" transform="translate(-406.834 270.602)"/></g><g class="e"><rect class="f" width="103" height="17" transform="translate(-406.834 297.602)"/></g><g class="e"><rect class="f" width="78" height="17" transform="translate(-406.834 324.602)"/></g><g class="e"><rect class="f" width="43" height="17" transform="translate(-406.834 350.602)"/></g><g class="e"><rect class="f" width="21" height="17" transform="translate(-406.834 377.602)"/></g><g class="g"><rect class="d" width="36" height="11" rx="2" transform="translate(-600.834 481.602)"/></g><g class="g"><rect class="d" width="36" height="11" rx="2" transform="translate(-549.834 481.602)"/></g><g class="g"><rect class="d" width="36" height="11" rx="2" transform="translate(-498.834 481.602)"/></g><g class="g"><rect class="d" width="90" height="11" rx="2" transform="translate(-406.834 204.602)"/></g><g class="g"><rect class="d" width="109" height="11" rx="2" transform="translate(-299.834 204.602)"/></g><path class="a" d="M-500.123,460.111a4.139,4.139,0,0,1-2.778-1.4c-1.13-1.084-1.369-1.122-1.729-1.181a3.743,3.743,0,0,1-.7-.17c-2.518-.881-3.684-2.614-4.811-4.291a10.209,10.209,0,0,0-3.251-3.481c-4.313-2.539-4.854-4.317-4.436-7.34l.388-2.8a3.2,3.2,0,0,1-.516-2.566c.547-2.4.5-2.723-.028-6.635l-.267-1.984c-.188-1-.363-2.057-.542-3.129-.723-4.358-1.471-8.864-3.517-12.342a15.7,15.7,0,0,1-1.968-5.636,32.013,32.013,0,0,1-.262-4.432,31.422,31.422,0,0,1,.336-5.457c.67-3.929.256-4.786.166-4.918a8.381,8.381,0,0,1-1.113-2.533,20.112,20.112,0,0,1-.744-5.182c0-.178-.005-.352-.009-.526l-.014-.247c-.013-.3-.079-.835-.169-1.588-.059-.488-.128-1.063-.2-1.719-.005-.036-.018-.084-.03-.134a2.9,2.9,0,0,0-.18-.419l-.292-.549.02-.006a60.812,60.812,0,0,1-5.212-14.459c-.428-1.819-.882-3.639-1.337-5.456l-.729-2.923c-.011-.046-.023-.093-.035-.138l-1.478,6.519c-.6,2.639-1.211,5.369-2,8.014a51.419,51.419,0,0,1-3.643,9.018,4.184,4.184,0,0,0-.35,1.652l-.018.23c-.069.786-.1,1.654-.113,2.732a20.146,20.146,0,0,1-.742,5.182,8.3,8.3,0,0,1-1.112,2.531.563.563,0,0,0-.09.452q.219,1.475.432,2.953l.146,1a46.545,46.545,0,0,1,.517,5.414,32.621,32.621,0,0,1-.11,4.437,15.494,15.494,0,0,1-1.779,5.7c-2.218,4.049-3.017,9.17-3.79,14.122l-.275,1.741c-.1,1.073-.2,1.982-.284,2.748-.354,3.283-.417,3.875.167,6.091a2.773,2.773,0,0,1-.28,2.364,26.359,26.359,0,0,0,.7,3.413c.511,1.69-.46,4.349-4.718,6.744a10.064,10.064,0,0,0-3.325,3.492c-1.11,1.631-2.258,3.317-4.635,4.247a2.575,2.575,0,0,1-.81.184c-.281.024-.524.045-1.615.992a4.56,4.56,0,0,1-3.232,1.443,3.137,3.137,0,0,1-1.951-.953,1.554,1.554,0,0,1-.673.21,2.082,2.082,0,0,1-1.526-.614,1.743,1.743,0,0,1-1.681-.834,1.187,1.187,0,0,1-.54-.493,1.664,1.664,0,0,1-.059-1.345,1.721,1.721,0,0,1,.267-1.332l.192-.314a4.128,4.128,0,0,1,1.155-1.34,4.458,4.458,0,0,1,.654-.428,5.807,5.807,0,0,0,1.868-1.77c.55-.678,1.115-1.36,1.686-2.048,2.586-3.12,5.261-6.346,6.934-9.786a13.583,13.583,0,0,0,1.171-5.165c0-1.56-.278-8.505-.281-8.575a163.733,163.733,0,0,1,.02-26.9,28.426,28.426,0,0,1,1.507-7.1,3.463,3.463,0,0,0,.2-1.369,36.714,36.714,0,0,1,.5-7.7,20.521,20.521,0,0,0,.077-5.4c-.127-1.481-.34-2.983-.546-4.435-.176-1.244-.359-2.53-.488-3.806-.042-.417-.11-.831-.179-1.246-.088-.525-.178-1.068-.215-1.618-.113-1.664-.187-3.414-.228-5.351a73.046,73.046,0,0,1,.34-8.692c.2-2.014.436-4.175.808-6.325.62-3.6,1.308-7.246,1.972-10.775l.352-1.869c.128-.677.266-1.354.4-2.03.125-.614.25-1.227.367-1.842a1.217,1.217,0,0,0,.006-.48,14.8,14.8,0,0,1,.28-6.66,11.579,11.579,0,0,1,.426-1.557,2.088,2.088,0,0,0-.008-1.141l-.076-.364a10.763,10.763,0,0,1-.259-1.645c-.082-1.663-.117-3.35-.149-4.981-.012-.561-.012-1.075-.011-1.589,0-.821,0-1.67-.045-2.5-.044-.734-.143-1.488-.237-2.217-.056-.434-.113-.868-.159-1.3l-.676-6.477a1.155,1.155,0,0,0-.013-.122q-.107-.249-.217-.5a37.258,37.258,0,0,1-1.175,3.879,26.594,26.594,0,0,1-1.824,4.12,1.981,1.981,0,0,0-.239,1.111c.025.848.008,1.689-.012,2.477-.008.278-.029.556-.051.833a10.167,10.167,0,0,0-.047,1.155,23.726,23.726,0,0,1-1.158,7.832c-1.179,3.909-2.4,7.951-3.651,11.938-.386,1.22-.846,2.431-1.291,3.6-.175.461-.35.921-.521,1.383a1.356,1.356,0,0,0-.025.994,15.378,15.378,0,0,1,.6,4.133,30.7,30.7,0,0,1-.174,4.323c-.015.167-.012.338-.011.509s0,.365-.01.546c-.022.312-.033.627-.045.942a11.476,11.476,0,0,1-.252,2.373,15.1,15.1,0,0,0-.249,4.141c.013.416.025.831.028,1.246,0,.287.009.573.015.86.011.482.021.965.012,1.448a2.926,2.926,0,0,1-.114.673c-.022.083-.043.167-.06.252l-.075.371-.379.028c-.125.009-.165.011-.205.017-.76.111-1.029.029-1.307-.513-.028.189-.057.376-.085.563a2.368,2.368,0,0,1-.142.583,1.219,1.219,0,0,1-1.186.749,1.137,1.137,0,0,1-1.029-1c-.061-.421-.124-.85-.155-1.285a16.327,16.327,0,0,1-.5,1.956,2.1,2.1,0,0,1-.39.7,1.031,1.031,0,0,1-1.412.216,1.1,1.1,0,0,0-.111-.042c-.055-.019-.111-.038-.169-.062l-.264-.11-.039-.284a23.352,23.352,0,0,1-.112-4.291c.016-.356.034-.711.052-1.068q-.23.938-.466,1.871a5.831,5.831,0,0,1-1.569,2.934.885.885,0,0,1-.949.308,1,1,0,0,1-.713-.938c-.009-.527-.018-1.031.02-1.532.09-1.263.185-2.526.311-3.786.1-.945.205-1.889.315-2.832l.081-.71c-.22.224-.444.445-.675.655a2.974,2.974,0,0,1-2.757.546,1.116,1.116,0,0,1-.851-.627,1.141,1.141,0,0,1,.13-1.069c.454-.775.908-1.552,1.339-2.342a7.679,7.679,0,0,0,.646-1.98l.052-.223c.337-1.441.7-2.872,1.064-4.3a4.013,4.013,0,0,1,.915-1.55c.407-.488.8-.99,1.191-1.491.407-.521.814-1.042,1.238-1.549a3.387,3.387,0,0,0,.728-2.208c.029-.777.112-1.557.192-2.312.047-.44.094-.88.13-1.321l.055-.651c.137-1.621.274-3.244.378-4.869.055-.858.088-1.717.121-2.576.025-.631.049-1.262.082-1.893a64.883,64.883,0,0,1,1.059-9.768,27.567,27.567,0,0,1,1.512-4.925,1.289,1.289,0,0,0,.1-.713,27.267,27.267,0,0,1,.261-8.862,78.874,78.874,0,0,1,2.764-10.859,3.68,3.68,0,0,0,0-1.809,8,8,0,0,1-.19-2.195.961.961,0,0,0,.005-.217c-.487-3.424.441-7.277,2.762-11.441,1.625-2.923,3.785-4.347,6.235-5.78a7.068,7.068,0,0,1,1.774-.644c.227-.059.454-.119.675-.187a6.328,6.328,0,0,1,.886-.181l.285-.045a7.246,7.246,0,0,0,2.306-.972l1.091-.63c1.2-.694,2.39-1.386,3.6-2.042.906-.493,1.842-.947,2.746-1.387l.995-.477c.673-.319.688-.41.645-.788-.062-.544-.306-3.132-.428-4.52l-.067-.1c-.164-.237-.327-.474-.483-.716a5.387,5.387,0,0,1-.781-2.633q0-.093-.012-.183a1.671,1.671,0,0,1-1.7-.588,2.966,2.966,0,0,1-.323-.657,3.188,3.188,0,0,0-.15-.348,2.622,2.622,0,0,0-.418-.537c-.08-.086-.158-.172-.231-.259a4.035,4.035,0,0,1-.747-2.571l0-.209c-.02-.929-.058-2.659,1.227-2.91.021,0,.042-.008.062-.01a8.325,8.325,0,0,1-.323-1.428,11.563,11.563,0,0,1,3.412-10.065,12.348,12.348,0,0,1,10.811-2.915,10.963,10.963,0,0,1,7.811,5.65,10.706,10.706,0,0,1,.929,7.52,7.736,7.736,0,0,0-.16,1.236.863.863,0,0,1,.237.011c1.287.252,1.249,1.982,1.229,2.911l0,.209a4.043,4.043,0,0,1-.746,2.57c-.074.089-.153.175-.233.262a2.59,2.59,0,0,0-.414.529,3.41,3.41,0,0,0-.152.355,3.025,3.025,0,0,1-.322.656,1.532,1.532,0,0,1-1.349.6l-.147,1a5.315,5.315,0,0,1-.811,2.083c-.005.035-.011.075-.018.122a20.719,20.719,0,0,0-.278,5.28c.005.043.008.08.012.112l.082.033.156.065c1.227.523,2.62,1.117,3.934,1.79,1.01.517,2.007,1.06,3,1.6.736.4,1.471.8,2.211,1.192a4.9,4.9,0,0,0,.674.273c.205.072.41.145.607.234a7.159,7.159,0,0,0,1.779.453c.412.069.823.139,1.227.248a10.332,10.332,0,0,1,2.919,1.291,14.344,14.344,0,0,1,4.987,4.818,22.367,22.367,0,0,1,2.842,7.244,14.4,14.4,0,0,1,.11,4.4,9.219,9.219,0,0,0-.058,1.053c-.006.277-.012.553-.033.827s-.056.525-.093.787c-.043.31-.087.621-.1.933a3.027,3.027,0,0,0,.15.926,74.711,74.711,0,0,1,2.923,12.085,29.584,29.584,0,0,1,.241,5.687c-.019.347-.065.693-.112,1.038-.035.258-.071.516-.092.774a1.168,1.168,0,0,0,.051.492,31.434,31.434,0,0,1,2.215,9.508c.15,1.715.257,3.458.36,5.143l.064,1.039q.093,1.524.173,3.046c.083,1.523.166,3.046.273,4.566.071.986.183,1.971.3,2.956.058.512.116,1.024.168,1.536.023.241.038.48.051.719.019.323.038.646.081.965a1.217,1.217,0,0,0,.191.552l.493.673c.658.9,1.338,1.836,2.082,2.674a6.19,6.19,0,0,1,1.474,2.762l.089.38c.247,1.051.494,2.1.724,3.158a8.244,8.244,0,0,0,.916,2.539c.211.349.411.7.611,1.053.16.283.32.564.486.844a1.158,1.158,0,0,1,.127,1.063,1.194,1.194,0,0,1-.887.657,3.261,3.261,0,0,1-3.189-.943c-.058-.058-.114-.117-.169-.177.156,1.412.31,2.81.439,4.207.084.957.135,1.916.187,2.874.024.465.049.93.078,1.394a1.814,1.814,0,0,1-.015.375,1.043,1.043,0,0,1-.731.859.834.834,0,0,1-.9-.3,6.336,6.336,0,0,1-1.664-3.358c-.114-.529-.26-1.05-.407-1.571a31.133,31.133,0,0,1-.029,5.434l-.036.3-.287.106c-.128.046-.165.057-.2.074a1.366,1.366,0,0,1-1.2.089,1.353,1.353,0,0,1-.683-.972c-.154-.64-.321-1.333-.474-2.041a11.668,11.668,0,0,1-.152,1.226l-.02.129a1.227,1.227,0,0,1-1.07,1.031,1.3,1.3,0,0,1-1.163-.791,2.374,2.374,0,0,1-.124-.514l-.018-.12c-.025-.162-.048-.322-.073-.48-.263.531-.514.64-1.14.532l-.768-.112-.067-.348c-.015-.078-.035-.158-.054-.239a3.267,3.267,0,0,1-.115-.761c0-.457.015-.918.032-1.378.014-.359.028-.718.031-1.076.015-1.215.015-2.43.015-3.643v-.3a17.8,17.8,0,0,1-.569-4.87l-.009-.391c-.014-.668-.066-1.333-.118-2l-.045-.586a20.479,20.479,0,0,1,.35-5.328,4.935,4.935,0,0,1,.3-1.081.558.558,0,0,0,0-.489c-.176-.472-.346-.944-.517-1.416-.233-.646-.467-1.293-.713-1.935-.887-2.314-1.588-4.719-2.266-7.045q-.312-1.072-.631-2.145c-.21-.7-.427-1.4-.644-2.1-.31-1-.62-2-.912-3.006a23.847,23.847,0,0,1-1.035-7.253c.018-.709-.029-1.443-.074-2.153-.028-.444-.056-.888-.07-1.332-.014-.4.008-.8.03-1.2l.013-.22a1.08,1.08,0,0,0-.143-.6,33.052,33.052,0,0,1-2.971-7.709,1.914,1.914,0,0,0-.126.39l-.143,1.59c-.173,1.911-.346,3.823-.495,5.736-.138,1.761-.229,3.338-.278,4.821-.022.672,0,1.345.021,2.018.012.368.024.737.029,1.105l.008.789c.013,1.006.025,2.013,0,3.016a9.928,9.928,0,0,1-.2,1.54l-.059.329a2.715,2.715,0,0,0,.047,1.165l.032.129c.266,1.048.541,2.132.74,3.224a11.823,11.823,0,0,1,.02,4.533.966.966,0,0,0,0,.375q.392,1.83.8,3.66.359,1.634.712,3.268l.38,1.762c.408,1.887.831,3.837,1.19,5.768.452,2.461.823,4.982,1.156,7.34a64.666,64.666,0,0,1,.648,8.838l.007,1.109c.009,1.37.02,2.787-.026,4.184-.027.861-.129,1.724-.227,2.558l-.1.822c-.128,1.184-.272,2.37-.418,3.555-.045.384-.1.772-.147,1.159-.083.63-.166,1.26-.223,1.892-.049.558-.085,1.119-.122,1.678l-.065.968a23.171,23.171,0,0,0,.285,5.469,36.664,36.664,0,0,1,.5,7.7,8.6,8.6,0,0,0,.477,1.8,52.2,52.2,0,0,1,1.6,6.67c.689,6.719.715,13.539.739,20.135l.015,3.288c-.025,1-.054,2-.083,2.992-.091,3.1-.184,6.3-.133,9.364a6.774,6.774,0,0,0,.356,2.245c.085.291.184.633.3,1.075a9.8,9.8,0,0,0,1.878,3.351c.2.274.41.553.614.842,2.145,3.029,4.464,6.174,6.891,9.348A5.749,5.749,0,0,0-495.2,452.8a2.136,2.136,0,0,1,.705.5c.87,1.017,1.242,1.8,1.139,2.408a1.069,1.069,0,0,1-.051.192,1.312,1.312,0,0,1,.115.986,1.361,1.361,0,0,1-.632.762,1.765,1.765,0,0,1-1.733.9,1.892,1.892,0,0,1-2.124.378,3.261,3.261,0,0,1-2.178,1.183C-500.013,460.109-500.068,460.111-500.123,460.111Zm-24.834-76.765h.029l.024.742c.005.182.01.365.01.549a19.134,19.134,0,0,0,.708,4.921,7.4,7.4,0,0,0,.976,2.235c.507.745.505,2.645-.007,5.647a30.514,30.514,0,0,0-.322,5.284,31.324,31.324,0,0,0,.251,4.294,14.7,14.7,0,0,0,1.842,5.274c2.139,3.637,2.9,8.236,3.641,12.684.177,1.065.351,2.116.542,3.135l.271,2.007c.542,3.994.6,4.411.012,6.992a2.158,2.158,0,0,0,.334,1.727l.277.172-.467,3.379c-.357,2.581-.091,3.961,3.953,6.341a11.151,11.151,0,0,1,3.573,3.785c1.083,1.612,2.107,3.134,4.311,3.9a2.914,2.914,0,0,0,.529.127c.579.094.97.207,2.261,1.446a3.108,3.108,0,0,0,2.187,1.116,2.626,2.626,0,0,0,1.766-1.165l.357-.441.393.409c.12.117.593.464,1.342-.253l.194-.186.262.059a.8.8,0,0,0,.94-.438l.081-.2.205-.077a.451.451,0,0,0,.233-.218.578.578,0,0,0-.154-.415l-.322-.448.385-.222c0-.124-.072-.575-.914-1.56a1.327,1.327,0,0,0-.4-.262,6.7,6.7,0,0,1-2.488-2.224c-2.435-3.183-4.761-6.338-6.913-9.377-.2-.283-.4-.556-.6-.825a10.67,10.67,0,0,1-2.042-3.7c-.111-.431-.208-.763-.29-1.046a7.731,7.731,0,0,1-.4-2.507c-.052-3.092.042-6.3.133-9.41q.043-1.49.083-2.972l-.015-3.276c-.024-6.571-.05-13.366-.734-20.037a51.628,51.628,0,0,0-1.543-6.44,7.154,7.154,0,0,1-.534-2.169,35.661,35.661,0,0,0-.485-7.485,24.171,24.171,0,0,1-.3-5.714l.065-.962c.036-.567.073-1.135.123-1.7.057-.646.142-1.29.227-1.934.051-.383.1-.766.146-1.149.146-1.182.29-2.364.417-3.543l.1-.831c.1-.814.2-1.654.22-2.473.045-1.378.035-2.785.026-4.146l-.007-1.111a63.64,63.64,0,0,0-.638-8.7c-.331-2.348-.7-4.856-1.15-7.3-.355-1.916-.777-3.859-1.183-5.738l-.381-1.764q-.351-1.632-.711-3.263c-.268-1.222-.537-2.444-.8-3.666a1.926,1.926,0,0,1-.005-.782,10.846,10.846,0,0,0-.024-4.155c-.193-1.059-.463-2.126-.725-3.158l-.034-.134a3.755,3.755,0,0,1-.061-1.581l.061-.334a9.186,9.186,0,0,0,.183-1.387c.026-.989.014-1.983,0-2.976l-.009-.791c-.005-.36-.017-.722-.028-1.084-.022-.681-.044-1.384-.021-2.083.049-1.5.141-3.09.28-4.866.149-1.917.322-3.833.5-5.748l.143-1.591a5.622,5.622,0,0,1,.907-2l.6-.672.286.973c.04.132.076.257.107.382a32.769,32.769,0,0,0,3.07,8.252,2.075,2.075,0,0,1,.265,1.133l-.013.224c-.021.371-.043.744-.03,1.113.014.435.042.868.069,1.3.046.731.1,1.488.076,2.24a22.886,22.886,0,0,0,.995,6.951c.29,1,.6,1.993.907,2.988.218.7.436,1.4.647,2.1s.424,1.434.633,2.152c.673,2.307,1.368,4.692,2.24,6.967.248.648.484,1.3.72,1.953.169.47.338.938.512,1.4a1.539,1.539,0,0,1-.021,1.25,4.112,4.112,0,0,0-.234.858,19.506,19.506,0,0,0-.335,5.069l.045.581c.053.684.107,1.367.121,2.054l.009.391a16.244,16.244,0,0,0,.52,4.533,1.245,1.245,0,0,1,.049.359v.3c0,1.217,0,2.436-.015,3.654,0,.366-.017.734-.032,1.1-.016.445-.034.891-.031,1.337a2.141,2.141,0,0,0,.071.461l.107.017.069.012.032-.069c.127-.286.251-.576.371-.866.037-.094.074-.2.111-.3l.64-1.725.4,1.549a21.949,21.949,0,0,1,.409,2.187l.015.1a1.621,1.621,0,0,0,.066.307.438.438,0,0,0,.194.172.345.345,0,0,0,.123-.194l.021-.131a9.4,9.4,0,0,0,.146-1.28c.015-.939.017-1.882.018-2.825,0-.64,0-1.279.008-1.917a2.457,2.457,0,0,1,.039-.368l.475-3.645.742,4.776c.143.953.282,1.878.451,2.8.2,1.087.456,2.16.706,3.2.053.218.121.294.141.3s.122.014.331-.085a32.976,32.976,0,0,0-.025-5.237c-.07-1.232-.142-2.507-.118-3.784l.016-.881.748.466a1.06,1.06,0,0,1,.5.764l.178.786c.115.511.23,1.024.359,1.53.088.345.184.688.282,1.03.156.554.312,1.107.432,1.669a5.412,5.412,0,0,0,1.328,2.793.349.349,0,0,0,.01-.108c-.028-.458-.053-.926-.078-1.394-.05-.946-.1-1.894-.185-2.837-.128-1.4-.283-2.8-.439-4.218l-.368-3.38,1.242,1.6c.086.113.168.222.256.326l.084.1c.215.257.428.512.662.748a2.287,2.287,0,0,0,2.263.671.4.4,0,0,0,.185-.077.559.559,0,0,0-.066-.15l0,0c-.169-.286-.333-.574-.5-.862-.2-.344-.39-.688-.6-1.028a9.154,9.154,0,0,1-1.038-2.845c-.229-1.05-.475-2.1-.721-3.143l-.089-.381a5.156,5.156,0,0,0-1.247-2.325c-.776-.874-1.471-1.827-2.143-2.748l-.486-.664a2.212,2.212,0,0,1-.382-1.021c-.046-.341-.066-.688-.087-1.037-.013-.226-.026-.453-.048-.679-.052-.5-.109-1.013-.167-1.521-.114-1-.227-2-.3-3-.108-1.526-.191-3.054-.275-4.582-.055-1.013-.11-2.026-.172-3.039l-.064-1.04c-.1-1.679-.209-3.414-.358-5.116a30.433,30.433,0,0,0-2.144-9.215,2.164,2.164,0,0,1-.123-.951c.023-.279.06-.555.1-.831.043-.318.087-.636.1-.954a28.549,28.549,0,0,0-.23-5.494A74.089,74.089,0,0,0-503.91,285a3.931,3.931,0,0,1-.2-1.257A10.251,10.251,0,0,1-504,282.7c.033-.242.067-.484.086-.726s.025-.512.03-.769a10.284,10.284,0,0,1,.067-1.166,13.435,13.435,0,0,0-.1-4.1,21.343,21.343,0,0,0-2.718-6.907,13.285,13.285,0,0,0-4.67-4.488,9.336,9.336,0,0,0-2.638-1.165,11.315,11.315,0,0,0-1.128-.226,8.038,8.038,0,0,1-2.025-.528c-.173-.078-.351-.14-.529-.2a5.845,5.845,0,0,1-.809-.332c-.743-.392-1.483-.795-2.222-1.2-.989-.539-1.979-1.078-2.981-1.591-1.282-.657-2.6-1.218-3.872-1.76l-.143-.06a.94.94,0,0,1-.708-.974,21.843,21.843,0,0,1,.286-5.538l.011-.066-.014-.2.1-.142.447.234-.378-.33a4.314,4.314,0,0,0,.662-1.686l.288-1.954.494.071c.265.038.731.069.882-.147a2.2,2.2,0,0,0,.211-.448,4.339,4.339,0,0,1,.2-.452,3.41,3.41,0,0,1,.566-.748c.069-.075.138-.15.2-.227a3,3,0,0,0,.513-1.938l0-.22c.011-.495.039-1.8-.411-1.906a3.326,3.326,0,0,0-.321.221l-.978.787.169-1.245c.037-.281.056-.534.075-.788a8.764,8.764,0,0,1,.188-1.441,9.7,9.7,0,0,0-.841-6.818,9.97,9.97,0,0,0-7.1-5.133,11.361,11.361,0,0,0-9.947,2.659,10.585,10.585,0,0,0-3.1,9.22,9.2,9.2,0,0,0,.4,1.631l.208.6.717,1.824-1.5-1.257a1.115,1.115,0,0,0-.406-.262c-.417.087-.389,1.408-.378,1.9l0,.221a3,3,0,0,0,.513,1.938c.063.075.132.149.2.225a3.462,3.462,0,0,1,.57.753,4.293,4.293,0,0,1,.194.447,2.122,2.122,0,0,0,.212.448c.137.2.58.232,1.188.091l.5-.116.1.5a5.368,5.368,0,0,1,.1.809,4.41,4.41,0,0,0,.627,2.15c.147.229.3.456.461.683l.217.316.011.131c.117,1.341.375,4.067.438,4.626.123,1.079-.484,1.459-1.23,1.813l-.967.463c-.894.435-1.819.885-2.705,1.366-1.2.652-2.386,1.34-3.575,2.029l-1.092.631A8.1,8.1,0,0,1-554,263.345l-.3.049a5.351,5.351,0,0,0-.744.148c-.232.072-.472.135-.714.2a6.176,6.176,0,0,0-1.524.541c-2.4,1.4-4.361,2.7-5.866,5.4-2.212,3.969-3.1,7.61-2.643,10.824a1.888,1.888,0,0,1,0,.444,7.185,7.185,0,0,0,.177,1.911,4.568,4.568,0,0,1-.034,2.3,77.994,77.994,0,0,0-2.73,10.722,26.307,26.307,0,0,0-.259,8.543,2.277,2.277,0,0,1-.167,1.241,26.653,26.653,0,0,0-1.457,4.748,64.061,64.061,0,0,0-1.04,9.62c-.033.627-.057,1.253-.081,1.88-.034.867-.068,1.735-.123,2.6-.1,1.632-.242,3.261-.379,4.889l-.055.65c-.037.448-.085.9-.132,1.344-.079.737-.16,1.5-.188,2.243a4.429,4.429,0,0,1-.961,2.813c-.416.5-.816,1.01-1.216,1.522s-.8,1.021-1.211,1.517a3.056,3.056,0,0,0-.714,1.157c-.364,1.425-.723,2.849-1.059,4.284l-.052.221a8.532,8.532,0,0,1-.742,2.233c-.436.8-.9,1.585-1.354,2.37a.449.449,0,0,0-.071.176c.007-.011.051.015.143.036a1.949,1.949,0,0,0,1.871-.31c.35-.318.68-.66,1.01-1l.168-.174a2.511,2.511,0,0,0,.193-.249l.351-.467.789.355-.046.557c-.008.124-.017.248-.032.373l-.174,1.52c-.109.938-.219,1.876-.313,2.816-.125,1.25-.219,2.5-.309,3.759-.033.437-.026.895-.019,1.341a4.732,4.732,0,0,0,1.264-2.433c.3-1.178.585-2.362.871-3.546l.469-1.939a1.458,1.458,0,0,1,.154-.351l.323-.66.54.462a.916.916,0,0,1,.261.665c-.016.47-.038.937-.062,1.4l-.068,1.325q-.055,1.068-.106,2.135a23.537,23.537,0,0,0,.066,3.812,1.127,1.127,0,0,1,.165.085l.493.309-.383-.321a1.124,1.124,0,0,0,.206-.37,22.481,22.481,0,0,0,.766-3.526c.057-.351.114-.7.176-1.052.1-.606.184-1.222.265-1.836l.366-2.668.7,1.77a1.7,1.7,0,0,1,.125.588l.009,1.66c0,.993.008,1.987.028,2.984a12.7,12.7,0,0,0,.162,1.571c.013.083.027.133.171.152a.446.446,0,0,0,.134-.145,1.323,1.323,0,0,0,.067-.3c.1-.637.186-1.225.281-1.87l.345-2.336.918,2.266c.117.291.222.553.332.813.03.072.068.161.1.226.051-.005.114-.014.179-.023a1.8,1.8,0,0,0,.068-.383c.009-.47,0-.939-.012-1.408-.006-.292-.013-.583-.015-.874,0-.408-.015-.815-.028-1.223a16.13,16.13,0,0,1,.278-4.412,10.62,10.62,0,0,0,.224-2.169c.012-.327.024-.654.047-.978.012-.154.009-.309.008-.464a5.722,5.722,0,0,1,.015-.614,29.987,29.987,0,0,0,.17-4.185,14.482,14.482,0,0,0-.555-3.865,2.349,2.349,0,0,1,.039-1.653c.171-.463.347-.926.523-1.39.44-1.158.9-2.356,1.272-3.548,1.252-3.98,2.47-8.019,3.647-11.925a22.777,22.777,0,0,0,1.117-7.508,11.071,11.071,0,0,1,.049-1.269c.02-.26.04-.521.048-.782.02-.773.037-1.6.012-2.42a2.954,2.954,0,0,1,.371-1.638,25.571,25.571,0,0,0,1.753-3.967,37.535,37.535,0,0,0,1.3-4.44,1.3,1.3,0,0,1,.438-.854l.509-.408.515,1.168c.169.38.333.748.491,1.121a1.312,1.312,0,0,1,.085.425l.673,6.447c.046.427.1.853.156,1.28.1.746.2,1.518.244,2.289.047.855.047,1.719.047,2.553,0,.507,0,1.015.01,1.522.033,1.671.067,3.35.149,5a9.875,9.875,0,0,0,.238,1.49l.079.374a3,3,0,0,1-.034,1.681,10.586,10.586,0,0,0-.387,1.424,13.969,13.969,0,0,0-.285,6.22,2.2,2.2,0,0,1,0,.9c-.118.617-.243,1.235-.369,1.852-.136.672-.273,1.344-.4,2.016l-.352,1.869c-.664,3.525-1.351,7.17-1.97,10.76-.367,2.119-.6,4.258-.8,6.254a72.276,72.276,0,0,0-.335,8.572c.04,1.921.114,3.656.226,5.3.034.5.116,1,.2,1.521.072.436.145.872.188,1.31.127,1.256.308,2.531.483,3.765.208,1.466.423,2.982.552,4.491a21.417,21.417,0,0,1-.088,5.654,35.73,35.73,0,0,0-.488,7.487,4.476,4.476,0,0,1-.264,1.751,27.446,27.446,0,0,0-1.45,6.847,162.858,162.858,0,0,0-.017,26.749c.012.3.282,7.048.282,8.628a14.485,14.485,0,0,1-1.272,5.6c-1.725,3.549-4.439,6.822-7.064,9.988-.567.684-1.131,1.363-1.678,2.039a6.669,6.669,0,0,1-2.154,2.01,3.654,3.654,0,0,0-.524.341,3.183,3.183,0,0,0-.919,1.073l-.2.331a.687.687,0,0,0-.131.6l.071.178-.057.2c-.156.422-.1.605-.072.665a.2.2,0,0,0,.12.1l.206.056.125.192a.753.753,0,0,0,.9.468l.288-.09.222.211a1.408,1.408,0,0,0,.936.511.594.594,0,0,0,.4-.2l.376-.463.4.443a2.4,2.4,0,0,0,1.6.965,3.727,3.727,0,0,0,2.5-1.2c1.247-1.083,1.658-1.188,2.185-1.234a1.6,1.6,0,0,0,.531-.118c2.09-.818,3.1-2.3,4.173-3.879a10.986,10.986,0,0,1,3.662-3.8c3.746-2.108,4.631-4.325,4.251-5.584a28.513,28.513,0,0,1-.765-3.823l-.039-.307.258-.172a1.73,1.73,0,0,0,.121-1.51c-.632-2.394-.556-3.093-.2-6.451.082-.764.18-1.67.288-2.77l.278-1.767c.749-4.8,1.6-10.246,3.9-14.448a14.494,14.494,0,0,0,1.662-5.331,31.782,31.782,0,0,0,.1-4.3,45.449,45.449,0,0,0-.506-5.3l-.146-1q-.216-1.478-.433-2.95a1.555,1.555,0,0,1,.255-1.163,7.353,7.353,0,0,0,.973-2.233,19.155,19.155,0,0,0,.706-4.923c.009-1.106.045-2,.117-2.811l.017-.221a5.01,5.01,0,0,1,.461-2.038,50.418,50.418,0,0,0,3.571-8.842c.783-2.612,1.395-5.325,1.987-7.947l2.542-11.2.446,2.752c.024.164.048.333.088.5.123.518.253,1.033.382,1.549l.729,2.924c.456,1.822.911,3.647,1.341,5.47a59.047,59.047,0,0,0,5.412,14.763l.4.738h-.133c.014.058.025.115.033.172.074.666.143,1.238.2,1.722S-524.988,383.038-524.957,383.346Z"/></g></svg>